<?xml version="1.0" standalone="no"?>
<!DOCTYPE svg PUBLIC "-//W3C//DTD SVG 20010904//EN"
 "http://www.w3.org/TR/2001/REC-SVG-20010904/DTD/svg10.dtd">
<svg version="1.0" xmlns="http://www.w3.org/2000/svg"
 width="2000.000000pt" height="2000.000000pt" viewBox="0 0 2000.000000 2000.000000"
 preserveAspectRatio="xMidYMid meet">

<g transform="translate(0.000000,2000.000000) scale(0.100000,-0.100000)"
fill="#000000" stroke="none">
<path d="M3213 14055 c-104 -28 -193 -88 -250 -167 -50 -71 -57 -83 -77 -148
-15 -51 -16 -216 -14 -2340 l3 -2285 27 -80 c29 -86 105 -215 162 -279 20 -22
36 -41 36 -43 0 -8 -96 9 -198 33 -105 26 -283 92 -357 134 -246 137 -392 261
-539 456 -189 253 -296 539 -312 840 -13 227 43 508 139 699 34 70 40 75 87
75 78 1 180 69 226 152 26 47 29 62 29 138 0 68 -5 93 -22 126 -34 63 -66 97
-125 129 -47 27 -63 30 -138 30 -75 0 -91 -3 -138 -30 -125 -68 -181 -210
-137 -348 l17 -54 -27 -42 c-128 -204 -214 -532 -215 -818 -1 -897 672 -1675
1582 -1828 185 -32 625 -28 773 5 47 11 125 2 125 -14 0 -19 -155 -162 -232
-214 -143 -97 -356 -184 -513 -211 -342 -58 -730 22 -1035 212 -155 97 -321
248 -431 392 -42 54 -129 198 -129 213 0 3 12 35 26 71 22 55 26 75 21 129
-14 140 -84 224 -217 258 -54 14 -66 14 -122 -1 -169 -42 -253 -194 -202 -364
26 -89 100 -153 210 -181 l49 -13 50 -100 c60 -122 109 -199 187 -295 183
-224 430 -404 700 -512 256 -102 454 -136 743 -127 250 8 405 45 624 148 220
104 405 254 559 454 l23 30 -5 -110 c-11 -265 -130 -534 -324 -730 -210 -214
-471 -329 -752 -330 -58 0 -121 3 -140 8 -31 6 -37 12 -49 52 -26 89 -110 173
-195 196 -53 15 -162 7 -203 -15 -227 -117 -225 -419 5 -524 72 -33 176 -28
252 11 45 24 55 25 98 16 180 -37 412 -37 557 0 242 63 446 180 626 361 173
173 281 352 364 604 23 70 45 124 48 120 2 -5 15 -49 28 -99 73 -287 -17 -690
-212 -944 -42 -55 -49 -72 -49 -109 0 -58 25 -98 77 -123 57 -28 107 -18 153
30 66 69 140 176 187 271 l47 95 7 195 c8 226 -5 664 -21 730 -24 96 -100 255
-163 340 -160 216 -440 360 -697 360 -137 0 -314 51 -418 121 -105 70 -210
192 -259 300 -55 119 -52 -18 -53 2359 -1 1766 1 2202 11 2225 23 54 66 100
116 125 l48 25 1125 3 c1114 2 1125 2 1158 -18 58 -36 62 -58 62 -370 0 -347
5 -373 89 -463 82 -88 128 -97 493 -97 163 0 308 -4 321 -9 14 -6 37 -25 51
-44 l26 -33 3 -1515 c2 -833 6 -1520 11 -1527 8 -13 160 -18 190 -6 15 6 16
152 16 1555 l0 1548 -25 58 c-23 52 -83 115 -538 569 -325 325 -527 519 -552
532 -84 41 -101 42 -1288 41 -951 0 -1151 -3 -1194 -14z m-1248 -2699 c84 -55
82 -176 -4 -233 -89 -59 -211 8 -211 117 0 106 126 174 215 116z m-642 -2213
c-7 -2 -21 -2 -30 0 -10 3 -4 5 12 5 17 0 24 -2 18 -5z m18 -25 c22 -7 54 -28
72 -46 28 -29 31 -39 32 -91 0 -95 -58 -156 -148 -156 -90 0 -142 56 -142 152
0 71 18 98 89 132 50 24 47 24 97 9z m98 -14 c1 -1 1 -8 -1 -14 -2 -7 -13 -3
-28 11 l-25 21 25 -7 c14 -4 27 -9 29 -11z m30 -64 c1 -9 -4 -7 -14 7 -9 13
-12 29 -8 40 6 16 8 15 14 -7 4 -14 7 -32 8 -40z m1238 -1830 c76 -46 88 -144
26 -211 -113 -123 -305 30 -214 170 38 59 127 79 188 41z"/>
<path d="M4707 12230 c-216 -112 -442 -202 -677 -266 -105 -28 -130 -39 -154
-65 l-28 -32 5 -336 c5 -283 9 -349 25 -416 83 -344 246 -608 521 -838 92 -77
262 -185 376 -238 65 -31 66 -31 109 -15 57 22 252 134 335 193 137 98 323
298 408 439 101 166 169 359 198 554 18 121 21 636 4 674 -13 28 -47 46 -134
71 -249 70 -510 170 -703 271 -68 35 -134 64 -147 64 -13 0 -75 -27 -138 -60z
m284 -249 c180 -86 283 -127 477 -188 l152 -48 0 -215 c0 -129 -6 -251 -14
-305 -15 -102 -73 -280 -118 -364 -130 -240 -326 -438 -571 -575 l-68 -38 -42
18 c-59 27 -180 107 -262 174 -243 198 -406 469 -456 754 -15 85 -19 157 -19
331 l0 223 32 7 c142 32 485 166 648 254 41 22 80 41 86 41 6 0 76 -31 155
-69z"/>
<path d="M5274 11560 c-11 -4 -70 -61 -130 -126 -60 -65 -154 -165 -210 -223
-56 -58 -116 -123 -134 -143 -17 -21 -39 -38 -48 -38 -9 0 -71 54 -137 120
-144 142 -157 146 -230 79 -39 -36 -45 -47 -45 -81 0 -37 8 -47 186 -223 182
-182 186 -185 228 -185 40 0 47 5 102 63 71 77 225 244 285 311 24 27 62 68
84 91 53 56 101 109 153 169 62 73 57 127 -18 179 -26 18 -53 21 -86 7z"/>
<path d="M9095 12118 c-3 -7 -4 -395 -3 -863 l3 -850 154 -3 c117 -2 156 1
163 10 4 7 8 172 8 366 l0 352 390 0 390 0 2 -362 3 -363 158 -3 157 -3 1 153
c2 695 -3 1564 -9 1570 -5 5 -76 7 -158 6 l-149 -3 -5 -350 -5 -350 -385 0
-385 0 -3 339 c-1 230 -6 344 -13 353 -16 18 -307 19 -314 1z"/>
<path d="M13698 11982 l-137 -45 -3 -151 -3 -151 -92 -3 -93 -3 0 -119 0 -119
93 -3 92 -3 5 -375 5 -375 28 -60 c63 -134 171 -195 347 -195 82 0 210 26 231
47 9 9 -15 215 -27 234 -3 5 -15 4 -27 -2 -12 -7 -53 -12 -92 -13 -80 -1 -113
14 -146 67 -18 30 -19 49 -17 352 l3 320 140 3 c87 2 142 7 146 14 4 6 7 59 8
119 l2 109 -150 0 c-110 0 -151 3 -154 13 -3 6 -2 93 1 193 4 149 3 182 -9
186 -8 3 -76 -15 -151 -40z"/>
<path d="M11228 11650 c-317 -54 -518 -331 -495 -683 20 -317 184 -515 478
-578 35 -7 105 -10 185 -7 129 5 193 19 294 65 45 21 143 83 152 96 7 12 -108
186 -129 194 -7 3 -30 -6 -51 -20 -20 -14 -64 -39 -97 -54 -55 -26 -69 -28
-180 -28 -110 0 -124 2 -170 27 -68 35 -128 102 -154 172 -39 106 -80 96 392
96 308 0 416 3 425 12 27 27 6 249 -35 361 -68 188 -207 308 -399 342 -87 16
-144 17 -216 5z m181 -246 c96 -28 167 -118 173 -217 l3 -42 -274 -3 -273 -2
7 37 c19 105 92 191 187 224 66 23 109 24 177 3z"/>
<path d="M12653 11645 c-83 -18 -157 -59 -216 -119 -26 -26 -50 -47 -52 -45
-2 2 -5 36 -7 74 l-5 70 -141 3 -142 3 0 -856 0 -855 150 0 150 0 0 305 c0
168 3 305 6 305 4 0 27 -18 51 -41 178 -164 484 -147 668 37 40 40 72 85 96
135 68 138 83 206 83 364 -1 209 -61 375 -178 490 -74 73 -145 110 -250 130
-93 18 -131 18 -213 0z m163 -288 c61 -31 98 -72 133 -147 24 -51 26 -65 26
-195 -1 -122 -3 -146 -22 -187 -28 -60 -84 -122 -142 -156 -40 -24 -57 -27
-131 -27 -69 0 -93 4 -127 23 -70 37 -109 78 -138 145 -25 61 -26 69 -23 213
4 169 16 209 88 283 81 83 227 104 336 48z"/>
<path d="M14718 11650 c-93 -12 -169 -35 -259 -81 -83 -41 -96 -53 -81 -72 5
-7 24 -48 42 -92 17 -44 36 -84 40 -88 4 -5 42 8 83 28 175 84 364 81 444 -6
28 -31 53 -101 53 -149 l0 -38 -172 -5 c-103 -3 -201 -11 -241 -21 -174 -39
-280 -128 -321 -266 -46 -156 10 -325 136 -410 78 -52 142 -70 247 -70 132 0
225 35 313 117 26 26 50 44 52 42 2 -2 8 -33 12 -69 l9 -65 133 -3 132 -3 0
433 c0 478 -3 508 -65 614 -54 93 -154 163 -275 192 -66 16 -205 22 -282 12z
m320 -783 c3 -87 -9 -124 -60 -176 -57 -58 -103 -76 -198 -76 -100 0 -141 18
-171 77 -44 87 -10 183 80 225 53 25 96 31 226 29 l120 -1 3 -78z"/>
<path d="M16150 11647 c-81 -19 -148 -55 -207 -115 -59 -58 -61 -57 -65 33
l-3 60 -143 3 -142 3 2 -853 3 -853 144 -3 c105 -2 147 1 152 10 4 6 6 144 4
305 -2 197 0 293 7 293 5 0 19 -11 29 -24 29 -37 118 -92 178 -110 71 -21 211
-21 282 0 140 42 259 143 322 274 58 123 72 193 71 365 -1 135 -4 158 -28 230
-66 195 -170 310 -331 365 -75 26 -203 34 -275 17z m123 -273 c191 -65 269
-367 151 -584 -108 -199 -389 -198 -499 1 -29 52 -30 60 -33 202 -5 188 9 238
83 313 30 31 68 57 95 67 59 20 145 21 203 1z"/>
<path d="M18596 11644 c-134 -30 -242 -108 -293 -213 -25 -50 -28 -67 -28
-156 0 -81 4 -109 21 -146 45 -96 134 -157 314 -214 176 -56 199 -66 225 -96
49 -59 39 -123 -28 -173 -39 -29 -156 -34 -239 -11 -53 15 -172 71 -203 96
-18 13 -29 -2 -79 -110 -55 -121 -59 -110 59 -167 117 -56 219 -76 365 -72 96
3 139 9 183 26 124 45 202 118 243 227 27 72 26 214 -3 275 -51 111 -144 172
-358 236 -66 20 -135 45 -153 56 -84 51 -77 151 13 195 64 32 187 17 303 -37
35 -16 70 -30 76 -30 11 0 96 192 96 217 0 14 -129 68 -212 88 -98 23 -222 27
-302 9z"/>
<path d="M16964 11616 c-3 -8 -4 -210 -2 -448 4 -381 7 -440 22 -488 49 -150
133 -239 270 -285 38 -13 74 -16 155 -13 142 6 201 29 291 114 l68 65 7 -63
c11 -107 -2 -99 148 -96 l132 3 0 610 0 610 -147 3 -147 3 -3 -398 c-3 -385
-4 -399 -24 -438 -31 -57 -79 -104 -129 -126 -126 -56 -249 -21 -304 86 l-26
49 -5 411 -5 410 -148 3 c-122 2 -148 0 -153 -12z"/>
<path d="M7720 11521 c-134 -44 -215 -154 -214 -291 1 -136 112 -260 247 -276
70 -8 77 -17 135 -159 129 -319 142 -672 36 -1000 -34 -105 -122 -289 -181
-378 -130 -195 -332 -385 -542 -506 -152 -89 -428 -186 -566 -198 l-60 -6 44
44 c110 110 191 295 191 438 0 57 -2 62 -26 71 -36 14 -144 12 -173 -3 -17 -9
-31 -34 -50 -92 -36 -105 -96 -198 -181 -278 -134 -127 -273 -182 -495 -197
-154 -10 -254 -32 -359 -79 -241 -109 -419 -311 -499 -566 -40 -127 -49 -254
-45 -621 l3 -331 43 -87 c46 -91 138 -234 195 -300 31 -36 38 -40 93 -43 72
-5 112 16 138 72 25 51 16 96 -32 158 -226 297 -304 694 -206 1040 9 29 23 19
34 -25 38 -144 138 -365 216 -476 49 -69 164 -209 186 -227 7 -5 42 -35 78
-66 84 -72 134 -105 250 -166 183 -96 320 -132 530 -140 148 -5 191 -1 323 27
56 12 60 12 115 -16 49 -25 69 -29 137 -29 124 0 206 49 260 156 34 67 35 173
1 244 -28 62 -97 126 -159 150 -61 23 -175 17 -232 -13 -59 -30 -113 -91 -140
-158 -23 -58 -24 -59 -77 -71 -74 -16 -148 -15 -269 2 -446 62 -807 391 -925
841 -17 66 -44 234 -44 277 0 36 21 35 44 -4 32 -55 217 -231 316 -303 147
-105 376 -207 560 -250 200 -45 514 -47 720 -3 535 115 978 446 1209 904 50
99 53 103 94 113 116 29 185 90 213 186 47 164 -42 314 -212 359 -93 24 -169
1 -243 -73 -70 -70 -83 -101 -83 -193 0 -61 5 -87 26 -132 l27 -55 -57 -94
c-146 -242 -365 -443 -625 -573 -234 -117 -446 -169 -689 -168 -280 0 -531 76
-747 225 -84 58 -233 201 -233 224 0 18 39 18 166 -1 146 -22 444 -30 604 -16
653 58 1234 458 1520 1046 100 204 158 416 181 657 13 140 2 347 -27 481 -25
122 -92 307 -152 422 l-58 110 18 50 c12 33 17 67 14 100 -14 161 -117 265
-270 271 -39 2 -82 0 -96 -5z m146 -163 c63 -31 90 -115 57 -178 -38 -73 -118
-99 -191 -61 -74 38 -97 140 -45 202 49 57 111 70 179 37z m681 -2177 c10 -13
7 -17 -13 -24 -34 -12 -54 -2 -54 28 0 23 3 25 28 19 15 -4 32 -14 39 -23z
m-314 -27 c-3 -9 0 -20 8 -25 9 -6 3 -8 -18 -6 -37 2 -40 8 -17 31 20 21 35
20 27 0z m387 -78 c0 -14 -6 -9 -20 19 -11 22 -20 41 -20 44 0 2 9 -6 20 -19
11 -13 20 -32 20 -44z m-163 28 c98 -47 113 -165 31 -241 -49 -46 -101 -53
-163 -23 -107 52 -114 209 -11 260 50 24 96 26 143 4z m132 -61 c0 -21 -4 -47
-9 -58 -8 -19 -9 -19 -9 2 -1 12 -5 23 -9 25 -5 2 -12 16 -16 31 -4 18 -3 26
3 23 5 -4 12 -2 16 4 13 21 25 8 24 -27z m-1431 -1833 c48 -29 75 -94 61 -146
-14 -50 -53 -91 -100 -105 -77 -24 -169 49 -169 134 0 108 116 173 208 117z"/>
<path d="M9141 9984 c-28 -36 -34 -60 -20 -86 23 -46 41 -58 84 -58 57 0 85
27 85 83 0 64 -21 87 -80 87 -40 0 -52 -4 -69 -26z"/>
<path d="M4306 9841 c-3 -4 -33 -11 -66 -15 -61 -7 -101 -20 -177 -58 -51 -25
-53 -30 -13 -21 24 4 35 0 54 -20 15 -17 20 -28 13 -31 -34 -14 29 -3 83 14
34 11 71 20 81 20 27 0 34 20 7 21 -13 0 -17 3 -10 6 19 7 14 20 -9 26 -32 8
-17 32 22 35 24 2 41 -3 56 -18 12 -11 30 -20 39 -20 28 0 7 -13 -33 -20 -33
-7 -29 -8 28 -9 143 -2 177 -81 89 -211 -9 -14 -27 -43 -40 -65 l-23 -40 37
35 c25 23 35 29 30 16 -5 -14 -4 -17 4 -12 7 4 12 2 12 -4 0 -7 7 -10 15 -7
12 5 12 1 4 -21 -6 -15 -16 -30 -22 -34 -9 -6 -9 -8 0 -8 14 0 94 122 110 167
7 20 7 35 2 39 -5 3 -9 -4 -9 -14 0 -11 -7 -25 -15 -32 -12 -10 -15 -10 -15 0
0 8 -7 21 -16 31 -27 30 -5 87 36 91 20 2 26 -3 31 -27 6 -27 7 -26 8 13 3
120 -75 182 -229 182 -43 0 -81 -4 -84 -9z"/>
<path d="M14500 9739 c-37 -13 -63 -63 -56 -103 10 -52 39 -76 94 -76 26 0 52
4 57 8 16 11 45 60 45 75 0 18 -27 72 -43 85 -19 16 -70 21 -97 11z m-23 -111
c-3 -8 -6 -5 -6 6 -1 11 2 17 5 13 3 -3 4 -12 1 -19z"/>
<path d="M18921 9741 c-56 -15 -73 -113 -29 -160 21 -23 94 -29 127 -11 56 29
47 136 -14 165 -35 16 -46 17 -84 6z"/>
<path d="M3925 9699 c-22 -12 -54 -32 -72 -45 -17 -13 -36 -24 -42 -24 -6 0
-11 -4 -11 -8 0 -4 -12 -15 -28 -24 -37 -22 -192 -179 -192 -195 0 -7 -4 -13
-10 -13 -5 0 -12 -11 -16 -25 -3 -14 -9 -25 -13 -25 -3 0 -14 -19 -25 -43 -10
-23 -22 -50 -27 -59 -14 -28 -11 -146 5 -176 14 -27 70 -82 82 -82 4 0 -1 9
-11 20 -20 22 -21 21 18 38 21 9 39 10 65 2 48 -13 57 -20 58 -47 0 -20 -4
-23 -38 -23 -21 0 -38 -4 -38 -10 0 -16 165 -12 228 6 32 8 66 19 77 24 76 33
101 45 105 49 3 4 23 15 45 25 43 21 132 74 152 91 7 5 19 16 27 23 8 6 20 12
26 12 5 0 10 4 10 8 0 14 103 62 133 62 l28 0 -7 -59 c-6 -55 -4 -61 19 -85
19 -19 37 -26 64 -26 58 0 208 60 251 101 10 9 28 20 40 23 12 4 22 11 22 16
0 5 -14 2 -31 -7 -25 -12 -35 -13 -60 -3 -36 15 -36 19 -1 47 32 27 21 23 -88
-29 -41 -20 -86 -38 -100 -40 -24 -3 -25 0 -31 57 -3 33 -6 52 -7 43 -3 -26
-17 -22 -42 9 -14 18 -19 35 -15 50 3 13 1 23 -5 23 -5 0 -10 -7 -10 -15 0
-21 -11 -19 -47 8 -23 17 -29 27 -22 38 19 30 7 25 -34 -15 -130 -126 -205
-181 -362 -266 -93 -50 -200 -80 -285 -80 -53 0 -62 3 -94 34 -36 33 -40 45
-38 121 1 34 0 37 -7 15 -8 -23 -9 -23 -10 -4 -1 12 -8 24 -16 28 -20 7 -19
39 1 82 17 36 38 42 68 19 18 -13 18 -15 -4 -49 -12 -20 -19 -42 -17 -49 3 -7
6 -5 6 6 1 9 6 17 11 17 6 0 10 6 10 13 0 7 12 28 28 47 43 53 166 176 182
183 13 4 13 6 1 6 -8 1 -22 -6 -31 -14 -13 -12 -24 -13 -42 -6 -15 5 -30 5
-41 0 -21 -12 -23 4 -2 21 12 10 18 10 30 0 13 -11 18 -10 30 6 8 10 17 28 21
39 4 11 15 31 25 43 l18 24 25 -27 25 -27 -26 -24 c-30 -27 -17 -33 14 -6 12
9 44 31 72 47 28 17 49 35 47 41 -3 7 4 10 17 7 14 -3 9 4 -15 19 -39 23 -48
42 -25 51 6 3 7 6 2 6 -6 1 -28 -8 -50 -20z m325 -450 c0 -5 4 -8 9 -4 5 3 9
-8 9 -25 -1 -26 -4 -29 -22 -23 -12 3 -31 6 -43 5 -30 -2 -29 12 3 37 29 23
44 27 44 10z m50 -29 c-8 -5 -19 -10 -25 -10 -5 0 -3 5 5 10 8 5 20 10 25 10
6 0 3 -5 -5 -10z m195 -53 c6 -31 11 -35 53 -44 l47 -10 -47 -2 c-38 -1 -50 3
-62 21 -18 25 -21 68 -6 68 5 0 12 -15 15 -33z m-412 -59 c-2 -5 1 -8 6 -8 6
0 11 -4 11 -10 0 -5 -6 -10 -14 -10 -8 0 -16 -4 -18 -8 -1 -5 -16 -12 -32 -16
-26 -6 -27 -5 -13 9 9 8 21 15 27 15 6 0 8 4 5 10 -4 6 -13 5 -24 -2 -11 -7
-26 -8 -37 -3 -18 8 -17 9 4 12 12 3 22 8 22 12 0 4 15 7 34 7 19 -1 32 -4 29
-8z"/>
<path d="M9130 9143 l0 -568 75 3 75 4 0 564 0 564 -75 0 -75 0 0 -567z m29
510 c-1 -16 -5 -39 -9 -53 -6 -20 -8 -14 -9 28 -1 28 3 52 9 52 6 0 10 -12 9
-27z"/>
<path d="M13620 9691 c-101 -30 -158 -76 -207 -169 -22 -42 -32 -134 -21 -187
13 -60 63 -137 103 -161 17 -10 32 -20 35 -24 7 -10 148 -58 200 -69 164 -35
239 -66 282 -113 23 -26 28 -41 28 -85 0 -82 -38 -138 -120 -175 -38 -17 -58
-20 -140 -16 -124 7 -185 33 -257 111 -28 32 -55 57 -60 57 -13 0 -113 -72
-113 -81 0 -9 11 -24 63 -84 35 -42 175 -111 252 -126 86 -16 259 -4 330 23
67 25 148 95 177 152 29 57 31 205 2 268 -37 83 -102 134 -211 164 -32 9 -80
23 -108 31 -27 8 -83 23 -123 33 -137 36 -198 101 -187 197 6 51 6 52 -22 58
-71 16 -94 45 -58 75 10 9 15 9 15 1 0 -6 14 -25 30 -43 17 -17 30 -26 30 -20
0 7 10 11 23 10 13 -1 37 8 54 20 59 42 154 55 243 34 65 -15 105 -38 157 -88
45 -44 70 -56 60 -30 -4 9 -1 13 6 10 7 -2 27 12 46 31 32 34 33 38 20 62 -26
48 -126 112 -220 142 -53 16 -243 12 -309 -8z m173 -27 c5 -30 -7 -37 -47 -26
-40 11 -43 28 -9 40 43 16 50 14 56 -14z m-329 -430 c3 -8 2 -12 -4 -9 -6 3
-10 10 -10 16 0 14 7 11 14 -7z m373 -150 c-3 -3 -12 -4 -19 -1 -8 3 -5 6 6 6
11 1 17 -2 13 -5z m249 -140 c-3 -9 -6 -21 -6 -27 0 -16 -20 14 -20 31 0 6 7
12 16 12 11 0 14 -5 10 -16z m-193 -281 c-7 -2 -21 -2 -30 0 -10 3 -4 5 12 5
17 0 24 -2 18 -5z m-35 -70 c-10 -2 -26 -2 -35 0 -10 3 -2 5 17 5 19 0 27 -2
18 -5z"/>
<path d="M15920 9620 c0 -5 -15 -10 -34 -10 -19 0 -37 -4 -40 -8 -3 -5 14 -8
37 -8 38 1 42 -1 43 -24 1 -51 -10 -57 -69 -34 -10 3 -17 -1 -20 -13 -4 -17
-11 38 -8 65 1 6 -3 12 -9 12 -6 0 -10 -34 -10 -89 0 -122 1 -121 -76 -121
l-64 0 2 -60 3 -60 57 0 c31 0 60 -5 63 -11 4 -5 8 -131 10 -279 3 -243 6
-272 23 -307 41 -80 96 -107 217 -106 50 0 102 5 116 11 22 9 25 15 22 44 -10
80 -6 76 -79 70 -82 -6 -128 14 -143 62 -13 45 -21 265 -14 399 l6 117 111 0
111 0 -3 60 -4 60 -108 0 -107 0 -7 46 c-3 26 -6 80 -6 120 0 43 -4 74 -10 74
-5 0 -10 -4 -10 -10z m148 -327 c-10 -2 -26 -2 -35 0 -10 3 -2 5 17 5 19 0 27
-2 18 -5z"/>
<path d="M6410 9550 c-77 -9 -190 -29 -202 -36 -5 -3 -33 -10 -61 -14 -66 -11
-150 -32 -157 -40 -3 -3 -39 -13 -80 -23 -41 -10 -86 -22 -100 -27 -14 -5 -92
-30 -175 -55 -82 -26 -175 -56 -205 -66 l-55 -18 68 6 c56 5 67 3 67 -10 0
-24 85 -32 145 -12 28 8 75 23 105 32 30 9 64 19 75 23 11 4 49 16 85 26 36 9
70 21 75 25 6 4 33 10 60 14 28 4 55 10 60 14 32 20 441 73 513 67 44 -4 57
-1 73 15 20 20 18 66 -5 81 -13 9 -196 8 -286 -2z m277 -16 c4 -11 -1 -22 -13
-31 -10 -8 -18 -20 -17 -26 2 -10 -14 -10 -75 -2 -58 7 -68 11 -40 13 20 2 42
10 48 18 7 8 20 14 30 14 10 0 23 7 30 15 16 20 29 19 37 -1z m-220 -70 c-3
-3 -12 -4 -19 -1 -8 3 -5 6 6 6 11 1 17 -2 13 -5z m-382 -34 c-5 -15 -2 -20
12 -20 32 -1 -58 -28 -111 -34 -37 -3 -43 -3 -21 3 l30 9 -27 1 c-34 1 -46 20
-22 35 30 18 56 24 102 25 39 1 43 -1 37 -19z"/>
<path d="M5130 9513 c-19 -10 -36 -21 -38 -25 -2 -4 -10 -8 -17 -8 -8 0 -20
-6 -27 -12 -7 -7 -29 -22 -48 -32 -19 -10 -66 -40 -103 -65 -38 -25 -77 -50
-88 -56 -10 -5 -19 -13 -19 -18 0 -4 9 -3 19 3 29 15 37 13 56 -16 14 -22 15
-28 4 -36 -10 -6 -6 -7 11 -2 14 4 65 33 114 65 49 33 94 59 99 59 5 0 6 -10
3 -22 -13 -41 -19 -106 -12 -131 3 -13 21 -32 39 -42 29 -15 48 -17 133 -12
90 6 174 22 199 39 6 3 31 9 58 13 26 4 47 11 47 16 0 12 -33 12 -45 0 -16
-15 -125 -25 -125 -12 0 7 -6 11 -12 10 -24 -3 -38 1 -38 11 0 6 7 10 15 10 8
0 15 4 15 9 0 6 -39 7 -93 4 -130 -8 -130 -7 -41 154 28 51 28 53 12 80 -21
35 -67 41 -118 16z m104 -9 c7 -18 -3 -94 -13 -94 -4 0 -15 -16 -25 -35 -19
-34 -36 -46 -36 -24 0 6 -7 9 -14 6 -10 -4 -13 -1 -9 9 3 7 0 14 -7 14 -7 0
-25 14 -40 32 l-28 32 21 16 c79 55 140 73 151 44z"/>
<path d="M13550 9500 c0 -5 5 -10 10 -10 6 0 10 5 10 10 0 6 -4 10 -10 10 -5
0 -10 -4 -10 -10z"/>
<path d="M9916 9393 c-30 -8 -88 -47 -121 -82 -44 -45 -55 -40 -55 24 l0 55
-68 0 -67 0 0 -407 0 -408 65 4 c36 2 67 5 70 7 2 3 3 111 2 241 -2 263 5 311
58 375 41 50 82 68 149 68 57 -1 78 -9 122 -45 53 -45 54 -49 57 -357 l3 -288
70 0 69 0 1 33 c1 17 2 136 4 262 4 284 13 316 106 369 33 19 58 26 101 26 70
0 110 -22 150 -81 l28 -42 0 -283 c0 -156 3 -284 8 -286 4 -2 37 -2 74 0 l67
4 0 261 c0 204 -3 279 -16 337 -31 146 -97 206 -238 217 -38 3 -88 0 -110 -6
-59 -16 -133 -66 -157 -106 -11 -20 -24 -35 -28 -33 -4 2 -23 23 -42 48 -49
65 -105 91 -203 96 -44 1 -89 0 -99 -3z m29 -83 l30 -20 -47 0 c-26 0 -50 -4
-53 -10 -3 -5 -11 -10 -16 -10 -6 0 -1 14 11 30 25 35 35 37 75 10z m812 -92
c-3 -7 -5 -2 -5 12 0 14 2 19 5 13 2 -7 2 -19 0 -25z m-1047 -208 c13 -31 6
-55 -9 -31 -5 7 -12 12 -17 12 -5 -1 -10 10 -12 24 -5 36 23 32 38 -5z m1074
-378 c2 -20 -1 -32 -9 -32 -6 0 -11 10 -9 23 1 12 3 28 3 36 2 24 11 6 15 -27z"/>
<path d="M12165 9391 c-53 -9 -121 -43 -167 -83 l-38 -33 36 -47 c38 -51 46
-52 90 -10 48 46 137 68 228 57 61 -8 101 -37 130 -92 19 -38 22 -122 4 -128
-7 -2 -86 -6 -176 -9 -146 -6 -168 -9 -210 -30 -105 -54 -142 -110 -142 -216
0 -146 54 -207 210 -235 116 -20 212 7 283 80 19 19 36 35 39 35 3 0 9 -17 12
-37 14 -75 12 -73 79 -73 l62 0 -3 293 c-1 177 -7 310 -14 337 -33 130 -121
190 -288 195 -52 2 -113 0 -135 -4z m255 -131 c13 -11 20 -20 16 -20 -4 0 -19
9 -33 20 -14 11 -21 20 -16 20 6 0 20 -9 33 -20z m-421 -323 c-25 -18 -34 -57
-14 -57 23 0 14 -23 -13 -35 -14 -6 -22 -19 -22 -35 -1 -19 -3 -22 -10 -10 -9
17 9 100 22 100 4 0 8 5 8 12 0 14 33 47 40 41 3 -3 -2 -10 -11 -16z m461 -52
c0 -41 -6 -78 -16 -97 -38 -74 -122 -118 -225 -118 -99 0 -154 49 -154 137 0
41 5 57 25 79 48 52 92 64 238 64 l132 0 0 -65z"/>
<path d="M15096 9393 c-31 -5 -97 -42 -134 -77 -80 -71 -84 -212 -9 -293 11
-13 26 -23 34 -23 7 0 13 -4 13 -10 0 -5 6 -10 13 -10 6 0 24 -6 39 -14 15 -8
62 -23 105 -35 172 -45 198 -59 209 -117 28 -152 -234 -196 -369 -62 -16 15
-32 28 -37 28 -5 0 -28 -18 -52 -39 l-43 -40 33 -34 c72 -74 197 -113 337
-104 178 10 268 92 269 242 1 82 -23 131 -83 170 -36 25 -142 64 -172 65 -9 0
-47 10 -85 22 -85 26 -124 62 -124 111 0 83 98 130 211 104 55 -13 116 -47
132 -74 13 -21 22 -16 63 34 l38 46 -33 28 c-74 61 -129 81 -231 84 -52 2
-108 1 -124 -2z m-36 -73 c0 -13 -5 -18 -15 -14 -8 4 -15 1 -15 -5 0 -17 -38
-33 -56 -23 -13 7 -11 12 12 35 32 33 74 37 74 7z m341 3 c33 -20 36 -28 13
-41 -9 -5 -17 -23 -18 -40 -1 -31 -1 -31 -22 -11 -11 10 -24 19 -28 19 -4 0
-14 7 -22 15 -14 13 -14 16 1 21 9 4 21 17 26 30 10 29 13 29 50 7z m-375
-296 c8 -26 -2 -32 -30 -19 -29 13 -59 59 -32 49 9 -4 16 -2 16 3 0 16 40 -13
46 -33z m181 -393 c-3 -3 -12 -4 -19 -1 -8 3 -5 6 6 6 11 1 17 -2 13 -5z"/>
<path d="M16668 9393 c-16 -2 -28 -9 -28 -14 0 -5 -10 -9 -22 -9 -49 0 -158
-95 -198 -170 -82 -158 -60 -399 47 -516 67 -72 127 -101 242 -119 138 -20
261 15 356 102 l39 36 -44 38 c-25 22 -49 39 -53 39 -5 0 -29 -18 -54 -39 -60
-53 -169 -82 -235 -61 -76 23 -136 70 -164 127 -31 63 -43 132 -23 135 8 0
147 1 309 2 l295 1 -2 75 c-2 84 -16 137 -51 195 -30 50 -102 125 -119 125 -7
0 -13 5 -13 10 0 6 -6 10 -12 10 -7 0 -26 7 -43 16 -30 16 -172 27 -227 17z
m-6 -46 c-16 -19 -63 -21 -56 -2 4 9 19 15 36 15 24 0 28 -3 20 -13z m283 -18
c12 -19 -5 -23 -22 -6 -16 16 -16 17 -1 17 9 0 20 -5 23 -11z m-378 -46 c16
-49 11 -68 -17 -65 -29 3 -70 22 -70 32 0 11 34 46 50 53 25 9 28 8 37 -20z
m463 -23 c0 -4 -7 -10 -15 -14 -8 -3 -15 -1 -15 4 0 5 -7 7 -15 4 -8 -4 -15
-1 -15 5 0 6 8 11 18 11 16 1 16 1 0 14 -31 23 -19 28 12 6 17 -12 30 -25 30
-30z m-156 -5 c14 -9 31 -13 37 -9 8 4 9 3 5 -4 -4 -7 4 -27 18 -44 27 -36 52
-119 42 -143 -8 -22 -444 -23 -452 0 -3 8 2 38 11 67 21 62 97 144 142 151 55
10 170 -1 197 -18z m96 -25 c0 -5 -5 -10 -11 -10 -5 0 -7 5 -4 10 3 6 8 10 11
10 2 0 4 -4 4 -10z m-570 -256 c0 -34 -4 -53 -10 -49 -11 7 -13 48 -4 83 10
36 14 26 14 -34z"/>
<path d="M17715 9391 c-48 -12 -77 -31 -120 -77 -23 -24 -46 -44 -52 -44 -7 0
-15 25 -19 60 l-7 60 -63 0 -64 0 0 -405 0 -405 74 0 73 0 1 274 1 275 26 40
c14 23 44 55 68 72 40 30 45 31 125 27 45 -3 77 -1 70 4 -8 5 0 7 20 5 27 -2
36 -8 47 -34 12 -27 11 -31 -1 -26 -8 3 -14 10 -14 16 0 6 -3 7 -6 4 -4 -4 0
-17 9 -30 32 -49 38 -106 38 -363 0 -142 2 -260 3 -263 2 -3 34 -4 70 -3 70 4
92 22 29 23 -34 0 -36 1 -15 10 13 5 28 6 33 3 17 -10 19 19 21 266 3 239 4
246 27 285 14 22 32 47 40 55 30 28 92 50 141 50 49 0 120 -25 120 -43 0 -5 7
-6 16 -3 8 3 13 2 10 -3 -3 -5 2 -24 12 -42 15 -29 18 -75 22 -317 3 -155 8
-282 13 -282 4 0 34 0 67 0 33 0 60 4 60 10 0 6 -15 10 -32 10 -25 0 -29 3
-18 10 8 5 23 7 33 4 18 -6 18 7 15 293 -4 285 -5 300 -27 348 -47 105 -105
139 -236 140 -74 0 -99 -4 -139 -23 -46 -22 -116 -84 -116 -103 0 -5 -9 -9
-20 -9 -11 0 -20 4 -20 9 0 17 -53 73 -94 99 -33 20 -56 26 -116 28 -41 2 -88
0 -105 -5z m535 -36 c-14 -17 -40 -20 -40 -6 0 5 10 12 23 14 12 2 24 5 26 6
2 0 -2 -6 -9 -14z m-740 -5 c0 -5 -7 -7 -15 -4 -8 4 -15 8 -15 10 0 2 7 4 15
4 8 0 15 -4 15 -10z m176 -65 c-29 -15 -86 -29 -67 -16 11 7 10 10 -4 12 -17
4 -17 5 -2 20 13 14 23 15 56 6 38 -10 38 -11 17 -22z"/>
<path d="M11068 9330 l-3 -60 221 0 c121 0 224 -3 227 -6 7 -7 -6 -35 -26 -56
-30 -31 -204 -239 -227 -272 -16 -23 -21 -29 -107 -131 -88 -104 -93 -113 -93
-172 l0 -53 88 -1 c48 -1 143 -1 212 0 69 0 175 1 236 1 l111 0 1 36 c1 20 4
45 7 55 6 18 -4 19 -223 19 -239 0 -256 3 -228 42 16 21 72 91 123 153 23 27
79 97 124 155 46 58 107 133 136 167 51 59 53 63 53 122 l0 61 -314 0 -314 0
-4 -60z m420 -37 c-10 -2 -28 -2 -40 0 -13 2 -5 4 17 4 22 1 32 -1 23 -4z m75
-106 c-6 -30 -6 -31 11 -14 24 23 29 22 15 -5 -22 -41 -31 -46 -59 -31 -14 7
-33 13 -42 13 -27 0 -22 20 14 57 25 25 35 30 49 22 14 -7 17 -16 12 -42z
m127 -579 c0 -4 -28 -7 -62 -7 -50 1 -57 3 -33 9 40 10 95 9 95 -2z m-532 -5
c-15 -2 -42 -2 -60 0 -18 2 -6 4 27 4 33 0 48 -2 33 -4z"/>
<path d="M14470 8980 l0 -411 68 7 c37 4 69 8 71 10 5 5 9 715 3 762 l-5 42
-68 0 -69 0 0 -410z m119 153 c-1 -68 -1 -68 -11 -26 -10 37 -5 93 7 93 3 0 4
-30 4 -67z m-42 25 c-3 -8 -6 -5 -6 6 -1 11 2 17 5 13 3 -3 4 -12 1 -19z"/>
<path d="M18890 8980 l0 -411 73 3 72 3 1 375 c1 206 0 390 -3 408 l-5 32 -69
0 -69 0 0 -410z"/>
<path d="M3598 8973 c7 -3 16 -2 19 1 4 3 -2 6 -13 5 -11 0 -14 -3 -6 -6z"/>
<path d="M4780 6671 c0 -5 9 -11 20 -14 24 -6 26 -29 5 -47 -12 -10 -20 -9
-40 4 -29 19 -32 33 -7 39 15 4 15 5 -2 6 -50 3 -135 -73 -167 -149 -21 -51
-18 -176 5 -225 22 -48 79 -110 121 -132 46 -24 185 -29 239 -9 92 35 166 148
166 255 0 163 -114 281 -272 281 -37 0 -68 -4 -68 -9z m140 -144 c100 -53 107
-173 15 -243 -127 -97 -296 49 -220 189 22 42 82 77 131 77 17 0 50 -10 74
-23z m132 -57 c46 4 48 2 48 -57 -1 -51 -2 -56 -14 -40 -13 17 -14 17 -19 -2
-3 -13 -13 -19 -30 -18 -22 2 -25 7 -25 40 -1 21 -4 53 -8 70 -6 28 -5 30 9
19 9 -8 26 -13 39 -12z m-442 -71 c0 -16 -4 -28 -9 -25 -8 5 -3 56 5 56 2 0 4
-14 4 -31z m263 -246 c-7 -2 -21 -2 -30 0 -10 3 -4 5 12 5 17 0 24 -2 18 -5z"/>
</g>
</svg>
